<?xml version="1.0" encoding="UTF-8"?>
<svg width="139px" height="24px" viewBox="0 0 139 24" version="1.1" xmlns="http://www.w3.org/2000/svg" xmlns:xlink="http://www.w3.org/1999/xlink">
    <!-- Generator: Sketch 48 (47235) - http://www.bohemiancoding.com/sketch -->
    <title>Logo@1x</title>
    <desc>Created with Sketch.</desc>
    <defs></defs>
    <g id="Desk_services_over" stroke="none" stroke-width="1" fill="none" fill-rule="evenodd" transform="translate(-32.000000, -10.000000)">
        <g id="Group-2" fill="#FFFFFF">
            <g id="Nav">
                <g transform="translate(32.000000, 0.000000)" id="Logo">
                    <g transform="translate(0.000000, 10.000000)">
                        <path d="M37.6516476,14.9730604 C37.6297062,14.9290959 37.9516841,13.5421718 37.9348453,13.5886923 L36.1448318,18.6722063 C36.0841101,18.8388621 36.0203269,18.9871143 35.9539923,19.1184963 C35.936133,19.1553037 35.9177634,19.1900663 35.8988835,19.2238064 C35.8233641,19.3643903 35.7447832,19.482992 35.6641611,19.5826788 C35.6269117,19.6343114 35.5835391,19.6823656 35.535574,19.7237739 L35.5330227,19.7268412 C35.5274098,19.7314421 35.5223071,19.7360431 35.5166942,19.740644 C35.4906706,19.7610926 35.462606,19.7810299 35.4340311,19.7994336 C35.4187231,19.8101691 35.4008638,19.8203934 35.384025,19.8295953 C35.2671741,19.8929858 35.1324638,19.9297932 34.989079,19.9297932 C34.5982152,19.9297932 34.2716449,19.661917 34.1833688,19.2974213 C34.1782662,19.2810624 34.1746943,19.2641924 34.172143,19.2462999 C34.1680609,19.2258513 34.164489,19.2043803 34.1629582,19.1829093 L34.1629582,19.1813757 C34.1604069,19.1542813 34.1588761,19.1261645 34.1588761,19.0975365 L34.1588761,19.0970253 C34.1445886,18.8644229 34.1563247,18.5699635 34.2093924,18.1972883 L34.6410775,15.184703 L34.6533239,15.0967742 C34.6533239,15.0967742 34.9502988,13.4286823 34.9768327,12.0248881 C34.9778532,11.9891031 34.9783634,11.9533181 34.9783634,11.9170219 L34.9783634,11.9103761 C34.9783634,9.60786732 33.1158921,7.74193548 30.8181638,7.74193548 L30.8115303,7.74193548 C30.7987737,7.74193548 30.7865273,7.74193548 30.7737706,7.7424467 C30.7523395,7.7424467 30.7309083,7.74295791 30.7094771,7.74398034 C30.6676353,7.74551398 30.6263037,7.74755884 30.5844619,7.75011491 C30.5844619,7.75011491 30.5773182,7.75011491 30.5737463,7.75011491 C30.5630307,7.75062613 30.5523152,7.75164855 30.5421098,7.75267098 C30.5319045,7.7531822 30.5211889,7.75420462 30.5104733,7.75522705 C30.4936345,7.7567607 30.4762855,7.75778312 30.4594467,7.75931677 C30.4533235,7.75982798 30.4472003,7.76085041 30.4410771,7.76136162 C30.411992,7.76391769 30.3823965,7.76698498 30.3533114,7.77005226 C29.8170217,7.83293161 29.3118582,7.99600894 28.8587419,8.23832447 C28.7969997,8.26593004 28.7372986,8.29762532 28.6827001,8.3400561 C28.5296203,8.41980551 28.3882765,8.52102593 28.2545868,8.62786969 C28.2464226,8.63349305 28.2387686,8.63962762 28.2306043,8.64525098 C28.1964165,8.67285654 28.1632492,8.70046211 28.1300819,8.72857889 C28.1270203,8.73062375 28.1239587,8.73369103 28.1208971,8.73726953 C28.0918119,8.7612966 28.0627268,8.78583488 28.0341519,8.81139559 C28.0147618,8.82826566 27.9958819,8.84513573 27.9770021,8.86251701 C27.9667967,8.87171887 27.9560811,8.88143194 27.9458758,8.89114501 C27.9254652,8.91005993 27.9055648,8.92897486 27.8861747,8.94737857 C27.8667846,8.96578228 27.8473945,8.98418599 27.8280044,9.00310092 C27.8239222,9.0061682 27.8208606,9.00923549 27.8183093,9.01230277 C26.6181634,10.1834945 26.2318919,11.5438355 26.2318919,11.5438355 L24.9501035,15.0967742 L24.9521445,15.0967742 L23.6448427,18.6722063 C23.5841211,18.8388621 23.5203378,18.9871143 23.4545135,19.1184963 C23.4366542,19.1553037 23.4177743,19.1900663 23.3988945,19.2238064 C23.3233751,19.3643903 23.2447941,19.482992 23.164172,19.5826788 C23.1269226,19.6343114 23.08355,19.6823656 23.035585,19.7237739 L23.0330337,19.7268412 C23.0274207,19.7314421 23.0223181,19.7360431 23.0167051,19.740644 C22.9906816,19.7610926 22.9631272,19.7810299 22.934042,19.7994336 C22.9182238,19.8101691 22.9008747,19.8203934 22.8840359,19.8295953 C22.767185,19.8929858 22.6319645,19.9297932 22.4896002,19.9297932 C22.0982261,19.9297932 21.7716558,19.661917 21.6833798,19.2974213 C21.6787874,19.2810624 21.6747052,19.2641924 21.6721539,19.2462999 C21.6680718,19.2258513 21.6644999,19.2043803 21.6629691,19.1829093 L21.6629691,19.1813757 C21.6604178,19.1542813 21.658887,19.1261645 21.658887,19.0975365 L21.658887,19.0970253 C21.6445995,18.8644229 21.6563357,18.5699635 21.7094033,18.1972883 L22.1410885,15.184703 L22.1533349,15.0967742 C22.1533349,15.0967742 22.4503097,13.4286823 22.4773539,12.0248881 C22.4783744,11.9891031 22.4788846,11.9533181 22.4788846,11.9170219 L22.4788846,11.9103761 C22.4748025,9.6109346 20.6169236,7.74807005 18.3222569,7.74193548 L18.3115413,7.74193548 C18.2987846,7.74193548 18.2870485,7.74193548 18.2742918,7.7424467 C18.2523504,7.7424467 18.2309192,7.74295791 18.2089778,7.74398034 C18.1676462,7.74551398 18.1263147,7.74755884 18.0849831,7.75011491 C18.0814113,7.75011491 18.0773291,7.75011491 18.0742675,7.75011491 C18.0635519,7.75062613 18.0528364,7.75164855 18.0421208,7.75267098 C18.0319154,7.7531822 18.0211999,7.75420462 18.0104843,7.75522705 C17.9936455,7.7567607 17.9768067,7.75778312 17.9599679,7.75931677 C17.9533345,7.75982798 17.9477215,7.76085041 17.9415983,7.76136162 C17.9114926,7.76391769 17.8829177,7.76698498 17.8533223,7.77005226 C17.3170326,7.83293161 16.8118692,7.99600894 16.3587528,8.23832447 C16.2970106,8.26593004 16.2373095,8.29762532 16.1832213,8.3400561 C16.0296312,8.41980551 15.8887978,8.52102593 15.7545978,8.62786969 C15.7464335,8.63349305 15.7387795,8.63962762 15.7306153,8.64525098 C15.6969377,8.67285654 15.6632601,8.70046211 15.6300928,8.72857889 C15.6275415,8.73062375 15.6239696,8.73369103 15.6214183,8.73726953 C15.5923331,8.7612966 15.5627377,8.78583488 15.5341628,8.81139559 C15.515283,8.82826566 15.4964031,8.84513573 15.477013,8.86251701 C15.4662974,8.87171887 15.4560921,8.88143194 15.4458868,8.89114501 C15.4259864,8.91005993 15.406086,8.92897486 15.3861856,8.94737857 C15.3667955,8.96578228 15.3474054,8.98418599 15.3280153,9.00310092 C15.3239332,9.0061682 15.3213818,9.00923549 15.3183202,9.01230277 C14.1181743,10.1834945 13.7324131,11.5438355 13.7324131,11.5438355 L12.4501144,15.0967742 L12.4526657,15.0967742 L11.1448537,18.6722063 C11.0846423,18.8388621 11.0203487,18.9871143 10.9545244,19.1184963 C10.9366651,19.1553037 10.9177852,19.1900663 10.8994157,19.2238064 C10.8238963,19.3643903 10.744805,19.482992 10.664183,19.5826788 C10.6269336,19.6343114 10.5840712,19.6823656 10.5355959,19.7237739 L10.5330446,19.7268412 C10.5274317,19.7314421 10.522329,19.7360431 10.5172263,19.740644 C10.4906925,19.7610926 10.4631381,19.7810299 10.434053,19.7994336 C10.418745,19.8101691 10.4013959,19.8203934 10.3840469,19.8295953 C10.2671959,19.8929858 10.1319754,19.9297932 9.98961117,19.9297932 C9.59823706,19.9297932 9.27166675,19.661917 9.18339071,19.2974213 C9.17879831,19.2810624 9.17471618,19.2641924 9.17216485,19.2462999 C9.16808273,19.2258513 9.16451086,19.2043803 9.1624698,19.1829093 L9.1624698,19.1813757 C9.16042873,19.1542813 9.15889793,19.1261645 9.15889793,19.0975365 L9.15889793,19.0970253 C9.14512075,18.8644229 9.1563466,18.5699635 9.20992455,18.1972883 L9.64109942,15.184703 L9.65385607,15.0967742 C9.65385607,15.0967742 9.95032068,13.4286823 9.97736479,12.0248881 C9.97838532,11.9891031 9.97889558,11.9533181 9.97889558,11.9170219 L9.97889558,11.9062864 C9.97889558,9.60633367 8.11795506,7.74193548 5.8222678,7.74193548 L5.81155221,7.74193548 C5.79879556,7.74193548 5.78705943,7.74193548 5.77430278,7.7424467 C5.75236134,7.7424467 5.73093016,7.74295791 5.70949898,7.74398034 C5.66765716,7.74551398 5.62632561,7.74755884 5.58499405,7.75011491 C5.58499405,7.75011491 5.57785033,7.75011491 5.57427846,7.75011491 C5.56356288,7.75062613 5.55284729,7.75164855 5.5421317,7.75267098 C5.53192638,7.7531822 5.52121079,7.75420462 5.5104952,7.75522705 C5.49365642,7.7567607 5.47681764,7.75778312 5.45997885,7.75931677 C5.45334539,7.75982798 5.44773247,7.76085041 5.44109901,7.76136162 C5.41201384,7.76391769 5.38292867,7.76698498 5.35333324,7.77005226 C4.81755381,7.83293161 4.31239036,7.99600894 3.85876378,8.23832447 C3.79702158,8.26593004 3.73732044,8.29762532 3.68323223,8.3400561 C3.52964213,8.41980551 3.38880869,8.52102593 3.2546087,8.62786969 C3.2469547,8.63349305 3.23879045,8.63962762 3.23062619,8.64525098 C3.19694863,8.67285654 3.16327106,8.70046211 3.13061403,8.72857889 C3.12755243,8.73062375 3.12398057,8.73369103 3.12142924,8.73726953 C3.09183381,8.7612966 3.0632589,8.78583488 3.034684,8.81139559 C3.01529389,8.82826566 2.99590378,8.84513573 2.97702393,8.86251701 C2.96681861,8.87171887 2.95661328,8.88143194 2.94640796,8.89114501 C2.92599732,8.91005993 2.90609694,8.92897486 2.88619656,8.94737857 C2.86680645,8.96578228 2.84741634,8.98418599 2.82802622,9.00310092 C2.82445436,9.0061682 2.82139276,9.00923549 2.81833117,9.01230277 C1.61818526,10.1834945 1.23191381,11.5438355 1.23191381,11.5438355 L0.00727512876,14.9393202 C-0.0207895077,15.0160023 0.0358500313,15.0967742 0.116982344,15.0967742 C0.166478157,15.0967742 0.210361043,15.0661013 0.227710091,15.0195808 L1.50694725,11.5208309 C1.56766891,11.354175 1.63145218,11.2064341 1.69727651,11.0745409 C1.71513582,11.0382447 1.7335054,11.0029709 1.75238525,10.9692307 C1.82790463,10.829158 1.90699588,10.7100451 1.98761793,10.6108696 C2.02486735,10.5587257 2.06772971,10.5106716 2.11569472,10.4692632 L2.11875632,10.4667072 C2.12385898,10.4621062 2.12947191,10.4575053 2.13457457,10.4529044 C2.16110841,10.4319446 2.18866278,10.4120073 2.21774795,10.3936035 C2.23305593,10.382868 2.25091524,10.3726438 2.26775403,10.3634419 C2.3840947,10.3005626 2.51931522,10.2637551 2.66218973,10.2637551 C3.05356385,10.2637551 3.3796239,10.5316314 3.46789993,10.8961271 C3.47300259,10.9129972 3.47657446,10.9298672 3.47963605,10.9467373 C3.48371818,10.9676971 3.48677978,10.9886569 3.48882084,11.0101279 L3.48882084,11.0116615 C3.49137217,11.0392671 3.49290297,11.0668726 3.49290297,11.0955006 L3.49290297,11.0960119 C3.50668016,11.3286143 3.4954543,11.6230737 3.44187636,11.9967713 L3.01070149,15.0088454 L2.99794484,15.0967742 C2.99794484,15.0967742 2.70096996,16.7643549 2.67443612,18.1681491 C2.67341559,18.2039341 2.67290532,18.2402303 2.67290532,18.2760153 L2.67290532,18.2836835 C2.67290532,20.5856811 4.53588692,22.4516129 6.83361524,22.4516129 L6.8402487,22.4516129 C6.85300535,22.4516129 6.86525174,22.4516129 6.87749813,22.4511017 C6.89943957,22.4511017 6.92036048,22.4505905 6.94230192,22.449568 C6.98414374,22.4480344 7.02496503,22.4459895 7.06731712,22.4434335 C7.06731712,22.4434335 7.07446085,22.4429223 7.07752244,22.4429223 C7.08823803,22.442411 7.09895362,22.4413886 7.10966921,22.4403662 C7.11987453,22.439855 7.13059012,22.4388325 7.14130571,22.4383213 C7.15814449,22.4367877 7.17498327,22.4357653 7.19182205,22.4342316 C7.19794525,22.4337204 7.20406844,22.4332092 7.21019163,22.4321868 C7.23978707,22.4296307 7.26887224,22.4265634 7.29846767,22.4229849 C7.8342471,22.3606168 8.33992082,22.1975394 8.79252686,21.9552239 C8.85477933,21.9276183 8.91448046,21.8954119 8.96856867,21.8534923 C9.12215877,21.7737429 9.26299222,21.6720112 9.39668195,21.5656787 C9.40535647,21.5600553 9.41301046,21.5539208 9.42117472,21.5477862 C9.45485228,21.5206918 9.48852985,21.4925751 9.52169714,21.4649695 C9.52424847,21.4624134 9.52782034,21.4593461 9.53037167,21.4562789 C9.55945684,21.4322518 9.58854201,21.4072023 9.61711691,21.3821528 C9.63650702,21.3652827 9.65538687,21.3484127 9.67426671,21.3310314 C9.6849823,21.3213183 9.69518762,21.3116052 9.70539295,21.3024034 C9.72580359,21.2834885 9.74570397,21.2645735 9.76560435,21.2461698 C9.78499446,21.2277661 9.80438457,21.2093624 9.82377469,21.1904475 C9.82785681,21.1873802 9.83040814,21.1838017 9.83346974,21.1812456 C11.0336156,20.0100539 11.4193768,18.6497129 11.4193768,18.6497129 L12.7016756,15.0967742 L12.6991243,15.0967742 L14.0069363,11.5208309 C14.0671477,11.354175 14.1314412,11.2064341 14.1972656,11.0745409 C14.2151249,11.0382447 14.2334945,11.0029709 14.2523743,10.9692307 C14.3278937,10.829158 14.4069849,10.7100451 14.487607,10.6108696 C14.5248564,10.5587257 14.5677188,10.5106716 14.6156838,10.4692632 L14.6187454,10.4667072 C14.6243583,10.4621062 14.629461,10.4575053 14.6345636,10.4529044 C14.6605872,10.4319446 14.6886518,10.4120073 14.717737,10.3936035 C14.733045,10.382868 14.750394,10.3726438 14.7672328,10.3634419 C14.8840838,10.3005626 15.0193043,10.2637551 15.1621788,10.2637551 C15.5530426,10.2637551 15.8801232,10.5316314 15.967889,10.8961271 C15.9729917,10.9129972 15.9765635,10.9298672 15.9796251,10.9467373 C15.9837072,10.9676971 15.9867688,10.9886569 15.9888099,11.0101279 L15.9888099,11.0116615 C15.9913612,11.0392671 15.992892,11.0668726 15.992892,11.0955006 L15.992892,11.0960119 C16.0066692,11.3286143 15.9949331,11.6230737 15.9418654,11.9967713 L15.5106906,15.0088454 L15.4979339,15.0967742 C15.4979339,15.0967742 15.200959,16.7643549 15.1744252,18.1681491 C15.1734047,18.2039341 15.1728944,18.2402303 15.1728944,18.2760153 L15.1728944,18.2836835 C15.1769765,20.5826138 17.0348554,22.4454783 19.3295222,22.4516129 L19.3402378,22.4516129 C19.3524842,22.4516129 19.3647305,22.4516129 19.3774872,22.4511017 C19.3989184,22.4511017 19.4203495,22.4505905 19.442291,22.449568 C19.4836225,22.4480344 19.5249541,22.4459895 19.5667959,22.4434335 C19.5698575,22.4434335 19.5739396,22.4429223 19.5739396,22.4429223 C19.5882271,22.442411 19.5989427,22.4413886 19.6096583,22.4403662 C19.6198636,22.439855 19.6300689,22.4388325 19.6407845,22.4383213 C19.6576233,22.4367877 19.6749723,22.4357653 19.6918111,22.4342316 C19.6979343,22.4337204 19.7040575,22.4332092 19.7101807,22.4321868 C19.7397761,22.4296307 19.7688613,22.4265634 19.7984567,22.4229849 C20.3342362,22.3606168 20.8393996,22.1975394 21.2925159,21.9552239 C21.3547684,21.9276183 21.4139593,21.8954119 21.4685577,21.8534923 C21.6221478,21.7737429 21.7629813,21.6720112 21.896671,21.5656787 C21.9048353,21.5600553 21.9129995,21.5539208 21.9206535,21.5477862 C21.9548413,21.5206918 21.9885189,21.4925751 22.0211759,21.4649695 C22.0211759,21.4649695 22.0272991,21.4593461 22.0303607,21.4562789 C22.0594459,21.4322518 22.0885311,21.4072023 22.117106,21.3821528 C22.1364961,21.3652827 22.1553759,21.3484127 22.1742558,21.3310314 C22.1849714,21.3213183 22.1951767,21.3116052 22.205382,21.3024034 C22.2257927,21.2834885 22.245693,21.2645735 22.2655934,21.2461698 C22.2849835,21.2277661 22.3043736,21.2093624 22.3232535,21.1904475 C22.3273356,21.1873802 22.3303972,21.1838017 22.3329485,21.1812456 C23.5336047,20.0100539 23.9193659,18.6497129 23.9193659,18.6497129 L25.2016646,15.0967742 L25.1991133,15.0967742 L26.5069254,11.5208309 C26.5671368,11.354175 26.63092,11.2064341 26.6972546,11.0745409 C26.715114,11.0382447 26.7334835,11.0029709 26.7523634,10.9692307 C26.8278828,10.829158 26.906974,10.7100451 26.9875961,10.6108696 C27.0243352,10.5587257 27.0677078,10.5106716 27.1156729,10.4692632 L27.1187345,10.4667072 C27.1238371,10.4621062 27.1289398,10.4575053 27.1345527,10.4529044 C27.1605763,10.4319446 27.1886409,10.4120073 27.2172158,10.3936035 C27.2330341,10.382868 27.2503831,10.3726438 27.2672219,10.3634419 C27.3840728,10.3005626 27.5192934,10.2637551 27.6621679,10.2637551 C28.0530317,10.2637551 28.379602,10.5316314 28.4678781,10.8961271 C28.4729807,10.9129972 28.4765526,10.9298672 28.4796142,10.9467373 C28.483186,10.9676971 28.4867579,10.9886569 28.488799,11.0101279 L28.488799,11.0116615 C28.4913503,11.0392671 28.4923708,11.0668726 28.4923708,11.0955006 L28.4923708,11.0960119 C28.5066583,11.3286143 28.4949222,11.6230737 28.4418545,11.9967713 L28.0106796,15.0088454 L27.997923,15.0967742 C27.997923,15.0967742 27.7009481,16.7643549 27.6744143,18.1681491 C27.6733937,18.2039341 27.6728835,18.2402303 27.6728835,18.2760153 L27.6728835,18.2836835 C27.6728835,20.5856811 29.5353548,22.4516129 31.8330831,22.4516129 L31.8397166,22.4516129 C31.8524732,22.4516129 31.8647196,22.4516129 31.8774763,22.4511017 C31.8989074,22.4511017 31.9203386,22.4505905 31.9422801,22.449568 C31.9841219,22.4480344 32.0249432,22.4459895 32.066785,22.4434335 C32.0703568,22.4434335 32.0739287,22.4429223 32.0775006,22.4429223 C32.0882162,22.442411 32.0984215,22.4413886 32.1091371,22.4403662 C32.1193424,22.439855 32.130058,22.4388325 32.1407736,22.4383213 C32.1576124,22.4367877 32.1749614,22.4357653 32.1918002,22.4342316 C32.1979234,22.4337204 32.2040466,22.4332092 32.2101698,22.4321868 C32.2397652,22.4296307 32.2688504,22.4265634 32.2984458,22.4229849 C32.8342252,22.3606168 33.3393887,22.1975394 33.792505,21.9552239 C33.8547575,21.9276183 33.9139483,21.8954119 33.9685468,21.8534923 C34.1221369,21.7737429 34.2629704,21.6720112 34.3966601,21.5656787 C34.4048243,21.5600553 34.4124783,21.5539208 34.4206426,21.5477862 C34.4548304,21.5206918 34.4879977,21.4925751 34.521165,21.4649695 C34.5242266,21.4624134 34.5272882,21.4593461 34.5303498,21.4562789 C34.559435,21.4322518 34.5885201,21.4072023 34.617095,21.3821528 C34.6364852,21.3652827 34.655365,21.3484127 34.6742448,21.3310314 C34.6849604,21.3213183 34.6951658,21.3116052 34.7053711,21.3024034 C34.7257817,21.2834885 34.7456821,21.2645735 34.7655825,21.2461698 C34.7844623,21.2277661 34.8038524,21.2093624 34.8237528,21.1904475 C34.8273247,21.1873802 34.8303863,21.1838017 34.8334479,21.1812456 C36.0330835,20.0100539 36.419355,18.6497129 36.419355,18.6497129 L37.6445039,15.2542282 C37.6720583,15.177546 37.6919587,15.0528098 37.6516476,14.9730604" id="Fill-1"></path>
                        <path d="M47.5760193,10.8388022 C47.5760193,8.7546093 47.2387227,7.98052636 46.563118,7.98052636 C44.7052052,7.98052636 43.7762488,14.4123158 43.7762488,17.8060837 C43.7762488,20.4567962 44.3107654,21.0522035 44.8179745,21.0522035 C46.1969969,21.0522035 47.5760193,14.8590049 47.5760193,10.8388022 Z M52.7280105,20.4862188 C52.671373,20.8735278 52.6430542,21.1420763 52.6430542,21.3207519 C52.6430542,21.7674411 52.8969117,22.0236856 53.2058896,22.0049621 C54.4038742,21.931138 55.4476227,20.621028 55.6301775,20.3214521 L55.7419355,20.5295504 C55.7419355,20.5295504 54.4726483,23.2011262 49.9689544,23.2257342 C48.7021956,23.2332236 46.788151,22.6608195 46.788151,20.2781205 C46.788151,19.5334602 46.8726016,18.7887999 47.1542721,17.8665339 L46.9292391,17.8665339 C46.0847333,21.4095548 44.5646228,23.2257342 41.5527206,23.2257342 C38.7102253,23.2257342 37.1612903,20.7847249 37.1612903,17.5685627 C37.1612903,12.0590394 40.7077091,7.74193548 46.6753817,7.74193548 C48.6182507,7.74193548 49.9406356,8.51601843 51.8551859,8.51601843 C53.4875601,8.51601843 54.4726483,7.74193548 54.4726483,7.74193548 L52.7280105,20.4862188 Z" id="Fill-3"></path>
                        <path d="M129.793752,10.4115097 C129.793752,8.40067097 129.453514,7.65383226 128.773548,7.65383226 C126.901732,7.65383226 125.966078,13.8592516 125.966078,17.1335742 C125.966078,19.6909935 126.504958,20.2654452 127.015823,20.2654452 C128.404788,20.2654452 129.793752,14.2902194 129.793752,10.4115097 Z M134.982377,19.7193806 C134.925331,20.0930581 134.897317,20.3521548 134.897317,20.5245419 C134.897317,20.9555097 135.153005,21.2027355 135.464211,21.184671 C136.670832,21.1139613 137.944686,19.3833806 138.128048,19.0938323 L138.241121,19.2951226 C138.241121,19.2951226 136.740102,22.3387355 132.20343,22.3624774 C130.928048,22.3697032 129.000204,21.816929 129.000204,19.5186065 C129.000204,18.8001548 129.084754,18.0817032 129.368964,17.1918968 L129.1418,17.1918968 C128.291715,20.6102194 126.760136,22.3624774 123.727029,22.3624774 C120.863531,22.3624774 119.303939,20.0073806 119.303939,16.9044129 C119.303939,11.5888 122.875925,7.42363871 128.886621,7.42363871 C130.843497,7.42363871 132.175416,8.17047742 134.103769,8.17047742 C135.747912,8.17047742 136.740102,7.42363871 136.740102,7.42363871 L134.982377,19.7193806 Z" id="Fill-5"></path>
                        <path d="M95.4410639,9.43930368 C95.4410639,8.39723837 95.1000307,7.97998429 94.6742498,7.97998429 C93.7364086,7.97998429 91.8607262,10.3326554 91.2072495,15.0374626 C93.252938,14.8288356 95.4410639,11.9101968 95.4410639,9.43930368 M94.5644862,21.5567901 C100.233397,21.5567901 101.306017,15.4841384 101.306017,15.4841384 L101.419355,15.633387 C101.419355,15.633387 100.201744,23.2258065 91.6054619,23.2258065 C86.802408,23.2258065 84.3870968,20.694465 84.3870968,16.8830095 C84.3870968,11.8802401 88.7633487,7.74193548 94.6742498,7.74193548 C98.5670311,7.74193548 100.442713,9.67735249 100.442713,11.6127695 C100.442713,13.5781432 98.6527999,15.6028954 94.2479584,15.6028954 C93.3381962,15.6028954 92.1450907,15.5130253 91.1786599,15.2755114 C91.1219912,15.6328521 91.0934016,16.1988198 91.0934016,16.6743824 C91.0934016,19.7117782 92.3564496,21.5567901 94.5644862,21.5567901" id="Fill-8"></path>
                        <path d="M111.536465,10.548329 C111.536465,8.56034076 111.19169,7.82198886 110.502658,7.82198886 C108.605884,7.82198886 107.657755,13.9568921 107.657755,17.1940065 C107.657755,19.7223642 108.204335,20.290288 108.721497,20.290288 C110.128981,20.290288 111.536465,14.3829625 111.536465,10.548329 M105.388852,22.3634903 C102.487174,22.3634903 100.906787,20.035156 100.906787,16.9674493 C100.906787,11.7122411 105.100852,7.59441114 111.19169,7.59441114 C111.536465,7.59441114 111.910142,7.62298592 112.197626,7.67962522 L112.800465,3.50464575 C112.944981,2.48156657 112.45569,2.16979531 111.450271,2.16979531 L111.364077,1.91364282 C115.759432,1.91364282 119.551948,0.493578299 119.551948,0.493578299 L116.794271,19.7504287 C116.736465,20.1198598 116.707561,20.3760123 116.707561,20.5464405 C116.707561,20.9725109 116.937755,21.199068 117.282529,21.199068 C118.59969,21.199068 120.59969,18.5191619 120.59969,18.5191619 L120.719432,18.6125402 C120.719432,18.6125402 118.599174,22.3726751 114.18369,22.3726751 C112.561497,22.3726751 110.732335,21.8241413 110.732335,19.5519361 C110.732335,18.8416487 110.818013,18.1313613 111.106013,17.2516663 L110.875819,17.2516663 C110.0144,20.6311443 108.4624,22.3634903 105.388852,22.3634903" id="Fill-10"></path>
                        <path d="M69.0199982,16.7951877 C69.1818047,17.7625425 69.0169548,18.7868006 68.5092174,19.6201742 C67.741778,20.8792874 66.3397935,21.5905777 64.9408525,21.9925214 C62.99461,22.5517249 60.92156,22.6313894 58.9332174,22.2573801 C58.0749838,22.0954645 57.2111706,21.8404346 56.5081495,21.3127865 C55.8046211,20.7856557 55.2831884,19.9424534 55.3171729,19.0526938 C55.3511573,18.1779361 55.9436022,17.3678411 56.7333597,17.0259044 C57.5236245,16.6834504 58.4721451,16.7951877 59.2020494,17.2555865 C59.2913219,17.3119724 59.3826234,17.3792217 59.4206656,17.4785437 C59.48762,17.6523572 59.3719715,17.8375513 59.2740761,17.9948111 C58.7252529,18.8809496 58.6446033,20.0795384 59.1650216,20.9837824 C59.6854398,21.8880264 60.824679,22.4048111 61.807184,22.0954645 C62.7891818,21.7861179 63.4531462,20.6123595 63.13562,19.6155185 C62.9829437,19.1364968 62.6451284,18.7423126 62.2804298,18.4024452 C61.3704587,17.5556217 60.2596245,16.972105 59.2507435,16.249434 C58.2423697,15.5277977 57.2933419,14.5976886 56.956541,13.3887537 C56.5669882,11.9868651 57.0950149,10.2409707 58.1896178,9.30517126 C59.135095,8.49662815 60.2951306,7.97260117 61.4962518,7.70722522 C62.8409192,7.40925924 64.2388458,7.4252956 65.6017735,7.61618006 C66.8891239,7.79671848 68.2789348,8.21883695 68.9763764,9.33724399 C69.1184009,9.56485689 69.2284699,9.84057889 69.160501,10.1018164 C69.0864454,10.383746 68.8252218,10.5710094 68.5655199,10.6941273 C67.7361984,11.0872768 66.7252885,11.0557214 65.9208214,10.6129109 C65.7686523,10.5291079 65.6083675,10.4065073 65.5951795,10.2311419 C65.5855422,10.1033683 65.6575689,9.98697537 65.7169148,9.87472082 C65.9512552,9.43449677 66.0242963,8.87529326 65.7889415,8.43610381 C65.4820672,7.86345044 64.7516556,7.66066804 64.1171106,7.74240176 C63.5266945,7.81896246 62.9342496,8.12417067 62.6522296,8.6585437 C62.3737602,9.18567449 62.4452796,9.85195953 62.7171551,10.3827114 C62.9890305,10.912946 63.4364076,11.327305 63.9071172,11.6847607 C65.4911973,12.8880053 67.5114954,13.6561988 68.5188547,15.3886434 C68.7694265,15.8205906 68.9373197,16.3001296 69.0199982,16.7951877" id="Fill-13"></path>
                        <path d="M84.1789548,16.7951877 C84.3460147,17.7625425 84.1758028,18.7868006 83.6494065,19.6201742 C82.8550839,20.8792874 81.4030286,21.5905777 79.9541253,21.9925214 C77.9383742,22.5517249 75.7912866,22.6313894 73.7314065,22.2573801 C72.8425217,22.0954645 71.9478581,21.8404346 71.219729,21.3127865 C70.4916,20.7856557 69.9510194,19.9424534 69.9867429,19.0526938 C70.0214157,18.1779361 70.6350194,17.3678411 71.4535078,17.0259044 C72.2719963,16.6834504 73.2538673,16.7951877 74.0098396,17.2555865 C74.1023005,17.3119724 74.1968627,17.3792217 74.2367889,17.4785437 C74.3061346,17.6523572 74.1858304,17.8375513 74.0849641,17.9948111 C73.5160147,18.8809496 73.4324848,20.0795384 73.9714894,20.9837824 C74.510494,21.8880264 75.6909456,22.4048111 76.7080147,22.0954645 C77.7256092,21.7861179 78.4127613,20.6123595 78.0838949,19.6155185 C77.9262912,19.1364968 77.5764111,18.7423126 77.1986876,18.4024452 C76.2556922,17.5556217 75.1051853,16.972105 74.0607982,16.249434 C73.0158857,15.5277977 72.0329641,14.5976886 71.6846599,13.3887537 C71.2806691,11.9868651 71.8275539,10.2409707 72.9612498,9.30517126 C73.9410194,8.49662815 75.1424848,7.97260117 76.3865032,7.70722522 C77.7786691,7.40925924 79.2265217,7.4252956 80.6386507,7.61618006 C81.9714525,7.79671848 83.4114249,8.21883695 84.1332498,9.33724399 C84.2808719,9.56485689 84.3948719,9.84057889 84.3239502,10.1018164 C84.2472498,10.383746 83.9772221,10.5710094 83.7082452,10.6941273 C82.8487797,11.0872768 81.8022912,11.0557214 80.9685677,10.6129109 C80.8109641,10.5291079 80.6449548,10.4065073 80.6318212,10.2311419 C80.6218396,10.1033683 80.6959134,9.98697537 80.7579041,9.87472082 C81.0006138,9.43449677 81.0762636,8.87529326 80.8319779,8.43610381 C80.5146691,7.86345044 79.7576461,7.66066804 79.1004387,7.74240176 C78.4894618,7.81896246 77.8753327,8.12417067 77.5832406,8.6585437 C77.2953512,9.18567449 77.3694249,9.85195953 77.6510101,10.3827114 C77.93207,10.912946 78.3959502,11.327305 78.883471,11.6847607 C80.5241253,12.8880053 82.616577,13.6561988 83.659388,15.3886434 C83.9194341,15.8205906 84.0933235,16.3001296 84.1789548,16.7951877" id="Fill-16"></path>
                    </g>
                </g>
            </g>
        </g>
    </g>
</svg>